<mxfile host="ac.draw.io" modified="2024-01-04T14:18:19.251Z" agent="Mozilla/5.0 (Macintosh; Intel Mac OS X 10_15_7) AppleWebKit/537.36 (KHTML, like Gecko) Chrome/120.0.0.0 Safari/537.36" etag="fUGnXddlvqqKHRqMAFFw" version="22.1.16" type="embed">
  <diagram id="CulR2waOl0Orih3Zojf3" name="Page-1">
    <mxGraphModel dx="-2913" dy="-1307" grid="1" gridSize="1" guides="1" tooltips="1" connect="1" arrows="1" fold="1" page="1" pageScale="1" pageWidth="827" pageHeight="1169" math="0" shadow="0">
      <root>
        <mxCell id="0" />
        <mxCell id="1" parent="0" />
        <mxCell id="lm-Ws9obBXdmSgudj_nQ-1" value="" style="rounded=1;whiteSpace=wrap;html=1;dashed=1;align=center;verticalAlign=middle;arcSize=2;" vertex="1" parent="1">
          <mxGeometry x="5401" y="2608" width="740" height="769" as="geometry" />
        </mxCell>
        <mxCell id="lm-Ws9obBXdmSgudj_nQ-2" value="64b/36b AXI Subordinate" style="rounded=0;whiteSpace=wrap;html=1;horizontal=0;fillColor=#f5f5f5;strokeColor=#666666;rotation=90;fontColor=#333333;" vertex="1" parent="1">
          <mxGeometry x="5750" y="2525.01" width="30" height="167.53" as="geometry" />
        </mxCell>
        <mxCell id="lm-Ws9obBXdmSgudj_nQ-6" value="rst_n" style="text;html=1;align=center;verticalAlign=middle;resizable=0;points=[];autosize=1;strokeColor=none;fillColor=none;fontColor=#000000;" vertex="1" parent="1">
          <mxGeometry x="5270" y="2795.24" width="40" height="20" as="geometry" />
        </mxCell>
        <mxCell id="lm-Ws9obBXdmSgudj_nQ-7" value="clk" style="text;html=1;align=center;verticalAlign=middle;resizable=0;points=[];autosize=1;strokeColor=none;fillColor=none;fontColor=#000000;" vertex="1" parent="1">
          <mxGeometry x="5275" y="2710" width="30" height="20" as="geometry" />
        </mxCell>
        <mxCell id="lm-Ws9obBXdmSgudj_nQ-8" value="SMS" style="rounded=0;whiteSpace=wrap;html=1;horizontal=0;fillColor=#f5f5f5;strokeColor=#666666;rotation=90;fontColor=#333333;" vertex="1" parent="1">
          <mxGeometry x="5530" y="2578.77" width="30" height="60" as="geometry" />
        </mxCell>
        <mxCell id="lm-Ws9obBXdmSgudj_nQ-9" value="ATPG" style="rounded=0;whiteSpace=wrap;html=1;horizontal=0;fillColor=#f5f5f5;strokeColor=#666666;rotation=90;fontColor=#333333;" vertex="1" parent="1">
          <mxGeometry x="5430" y="2578.77" width="30" height="60" as="geometry" />
        </mxCell>
        <mxCell id="lm-Ws9obBXdmSgudj_nQ-10" value="" style="endArrow=classic;html=1;rounded=0;fontColor=#000000;startArrow=classic;startFill=1;exitX=0;exitY=0.5;exitDx=0;exitDy=0;" edge="1" parent="1" source="lm-Ws9obBXdmSgudj_nQ-9">
          <mxGeometry width="50" height="50" relative="1" as="geometry">
            <mxPoint x="5440" y="2590" as="sourcePoint" />
            <mxPoint x="5445" y="2550" as="targetPoint" />
          </mxGeometry>
        </mxCell>
        <mxCell id="lm-Ws9obBXdmSgudj_nQ-11" value="" style="endArrow=classic;html=1;rounded=0;fontColor=#000000;startArrow=classic;startFill=1;exitX=0;exitY=0.5;exitDx=0;exitDy=0;" edge="1" parent="1">
          <mxGeometry width="50" height="50" relative="1" as="geometry">
            <mxPoint x="5544.88" y="2594" as="sourcePoint" />
            <mxPoint x="5544.88" y="2550" as="targetPoint" />
          </mxGeometry>
        </mxCell>
        <mxCell id="lm-Ws9obBXdmSgudj_nQ-12" value="clk_div" style="whiteSpace=wrap;html=1;rotation=-90;" vertex="1" parent="1">
          <mxGeometry x="5364" y="2702.53" width="70" height="32.47" as="geometry" />
        </mxCell>
        <mxCell id="lm-Ws9obBXdmSgudj_nQ-13" value="" style="endArrow=classic;html=1;rounded=0;fontColor=#000000;entryX=0.5;entryY=0;entryDx=0;entryDy=0;" edge="1" parent="1" target="lm-Ws9obBXdmSgudj_nQ-12">
          <mxGeometry width="50" height="50" relative="1" as="geometry">
            <mxPoint x="5313" y="2719" as="sourcePoint" />
            <mxPoint x="5144" y="2794" as="targetPoint" />
          </mxGeometry>
        </mxCell>
        <mxCell id="lm-Ws9obBXdmSgudj_nQ-14" value="" style="endArrow=classic;html=1;rounded=0;fontColor=#000000;startArrow=classic;startFill=1;exitX=0;exitY=0.5;exitDx=0;exitDy=0;" edge="1" parent="1">
          <mxGeometry width="50" height="50" relative="1" as="geometry">
            <mxPoint x="5757.54" y="2595.01" as="sourcePoint" />
            <mxPoint x="5757.54" y="2551.01" as="targetPoint" />
          </mxGeometry>
        </mxCell>
        <mxCell id="lm-Ws9obBXdmSgudj_nQ-15" value="axi4" style="edgeLabel;html=1;align=center;verticalAlign=middle;resizable=0;points=[];" vertex="1" connectable="0" parent="lm-Ws9obBXdmSgudj_nQ-14">
          <mxGeometry x="-0.0488" relative="1" as="geometry">
            <mxPoint as="offset" />
          </mxGeometry>
        </mxCell>
        <mxCell id="lm-Ws9obBXdmSgudj_nQ-23" value="" style="endArrow=classic;html=1;rounded=0;fontColor=#000000;startArrow=classic;startFill=1;exitX=0;exitY=0.5;exitDx=0;exitDy=0;" edge="1" parent="1">
          <mxGeometry width="50" height="50" relative="1" as="geometry">
            <mxPoint x="5756.54" y="2667" as="sourcePoint" />
            <mxPoint x="5756.54" y="2623" as="targetPoint" />
          </mxGeometry>
        </mxCell>
        <mxCell id="lm-Ws9obBXdmSgudj_nQ-24" value="axi4" style="edgeLabel;html=1;align=center;verticalAlign=middle;resizable=0;points=[];" vertex="1" connectable="0" parent="lm-Ws9obBXdmSgudj_nQ-23">
          <mxGeometry x="-0.0341" y="-1" relative="1" as="geometry">
            <mxPoint as="offset" />
          </mxGeometry>
        </mxCell>
        <mxCell id="lm-Ws9obBXdmSgudj_nQ-36" value="&lt;b&gt;SYS_SPM&lt;/b&gt;" style="text;html=1;strokeColor=none;fillColor=none;align=center;verticalAlign=middle;whiteSpace=wrap;rounded=0;fontFamily=Courier New;" vertex="1" parent="1">
          <mxGeometry x="5744" y="3390" width="60" height="30" as="geometry" />
        </mxCell>
        <mxCell id="lm-Ws9obBXdmSgudj_nQ-37" value="APB subordinate" style="rounded=0;whiteSpace=wrap;html=1;horizontal=0;fillColor=#f5f5f5;strokeColor=#666666;rotation=90;fontColor=#333333;" vertex="1" parent="1">
          <mxGeometry x="6018" y="2555.39" width="27" height="99.77" as="geometry" />
        </mxCell>
        <mxCell id="lm-Ws9obBXdmSgudj_nQ-38" value="" style="endArrow=classic;html=1;rounded=0;fontColor=#000000;startArrow=classic;startFill=1;exitX=0;exitY=0.5;exitDx=0;exitDy=0;" edge="1" parent="1">
          <mxGeometry width="50" height="50" relative="1" as="geometry">
            <mxPoint x="6031.3" y="2593" as="sourcePoint" />
            <mxPoint x="6031.3" y="2549" as="targetPoint" />
          </mxGeometry>
        </mxCell>
        <mxCell id="lm-Ws9obBXdmSgudj_nQ-39" value="apb3/4" style="edgeLabel;html=1;align=center;verticalAlign=middle;resizable=0;points=[];" connectable="0" vertex="1" parent="lm-Ws9obBXdmSgudj_nQ-38">
          <mxGeometry x="0.0227" y="-2" relative="1" as="geometry">
            <mxPoint as="offset" />
          </mxGeometry>
        </mxCell>
        <mxCell id="lm-Ws9obBXdmSgudj_nQ-40" value="rst_syn&amp;nbsp;" style="whiteSpace=wrap;html=1;rotation=-90;" vertex="1" parent="1">
          <mxGeometry x="5364" y="2789" width="70" height="32.47" as="geometry" />
        </mxCell>
        <mxCell id="lm-Ws9obBXdmSgudj_nQ-41" value="" style="endArrow=classic;html=1;rounded=0;fontColor=#000000;entryX=0.5;entryY=0;entryDx=0;entryDy=0;" edge="1" parent="1" target="lm-Ws9obBXdmSgudj_nQ-40">
          <mxGeometry width="50" height="50" relative="1" as="geometry">
            <mxPoint x="5313" y="2805.47" as="sourcePoint" />
            <mxPoint x="5144" y="2880.47" as="targetPoint" />
          </mxGeometry>
        </mxCell>
        <mxCell id="lm-Ws9obBXdmSgudj_nQ-42" value="CSR" style="whiteSpace=wrap;html=1;" vertex="1" parent="1">
          <mxGeometry x="5959" y="2678" width="145" height="66" as="geometry" />
        </mxCell>
        <mxCell id="lm-Ws9obBXdmSgudj_nQ-43" value="" style="endArrow=classic;html=1;rounded=0;fontColor=#000000;startArrow=classic;startFill=1;exitX=0.5;exitY=0;exitDx=0;exitDy=0;entryX=1;entryY=0.5;entryDx=0;entryDy=0;" edge="1" parent="1" source="lm-Ws9obBXdmSgudj_nQ-42" target="lm-Ws9obBXdmSgudj_nQ-37">
          <mxGeometry width="50" height="50" relative="1" as="geometry">
            <mxPoint x="5998" y="2663" as="sourcePoint" />
            <mxPoint x="5998" y="2619" as="targetPoint" />
          </mxGeometry>
        </mxCell>
        <mxCell id="lm-Ws9obBXdmSgudj_nQ-49" value="LP NoC&amp;nbsp;&lt;br&gt;" style="shape=hexagon;perimeter=hexagonPerimeter2;whiteSpace=wrap;html=1;fixedSize=1;fillColor=#e1d5e7;strokeColor=#9673a6;" vertex="1" parent="1">
          <mxGeometry x="5662" y="2500" width="198.5" height="49" as="geometry" />
        </mxCell>
        <mxCell id="lm-Ws9obBXdmSgudj_nQ-52" value="AXI2REG" style="whiteSpace=wrap;html=1;" vertex="1" parent="1">
          <mxGeometry x="5670" y="2667" width="165" height="50" as="geometry" />
        </mxCell>
        <mxCell id="lm-Ws9obBXdmSgudj_nQ-53" value="SYS-SPM&amp;nbsp;&lt;br&gt;MEM" style="whiteSpace=wrap;html=1;" vertex="1" parent="1">
          <mxGeometry x="5578.75" y="2840" width="365" height="490" as="geometry" />
        </mxCell>
        <mxCell id="lm-Ws9obBXdmSgudj_nQ-4" value="MBIST" style="rounded=0;whiteSpace=wrap;html=1;horizontal=0;fillColor=#f5f5f5;strokeColor=#666666;rotation=90;fontColor=#333333;" vertex="1" parent="1">
          <mxGeometry x="5762.15" y="3160.92" width="28.7" height="139.41" as="geometry" />
        </mxCell>
        <mxCell id="lm-Ws9obBXdmSgudj_nQ-5" value="Memory Repair" style="rounded=0;whiteSpace=wrap;html=1;horizontal=0;fillColor=#f5f5f5;strokeColor=#666666;rotation=90;fontColor=#333333;" vertex="1" parent="1">
          <mxGeometry x="5762.15" y="3190.63" width="28.7" height="139.37" as="geometry" />
        </mxCell>
        <mxCell id="lm-Ws9obBXdmSgudj_nQ-54" value="" style="endArrow=classic;html=1;rounded=0;fontColor=#000000;startArrow=classic;startFill=1;entryX=1;entryY=0.5;entryDx=0;entryDy=0;" edge="1" parent="1">
          <mxGeometry width="50" height="50" relative="1" as="geometry">
            <mxPoint x="5758" y="2839" as="sourcePoint" />
            <mxPoint x="5756.75" y="2717" as="targetPoint" />
          </mxGeometry>
        </mxCell>
      </root>
    </mxGraphModel>
  </diagram>
</mxfile>
